<svg width="48" height="48" viewBox="0 0 48 48" fill="none" xmlns="http://www.w3.org/2000/svg">
<rect width="48" height="48" fill="#202020"/>
<path fill-rule="evenodd" clip-rule="evenodd" d="M3.29395 32.0879V21.7532H5.09151V30.4779H7.99562C9.11187 30.4779 9.99616 30.3231 10.6389 30.0041C11.2816 29.6898 11.7841 29.1191 12.1417 28.302C12.4992 27.485 12.6827 26.4405 12.6827 25.1833C12.6827 23.931 12.4943 22.9108 12.1223 22.113C11.7502 21.3201 11.2476 20.7882 10.6148 20.5076C9.9816 20.2272 9.09258 20.0917 7.95207 20.0917H5.58076V20.0915H3.29395V18.4817H7.98107C9.36312 18.4817 10.489 18.6558 11.3637 18.9989C12.2382 19.3422 12.9825 20.0481 13.6057 21.1119C14.2243 22.1708 14.5337 23.5393 14.5337 25.2122C14.5337 27.277 14.0455 28.9401 13.0647 30.2022C12.0885 31.4593 10.4648 32.0879 8.19871 32.0879H3.29395Z" fill="white"/>
<path fill-rule="evenodd" clip-rule="evenodd" d="M16.4668 25.4589C16.4668 23.9696 16.7373 22.6932 17.2785 21.6197C17.8196 20.5465 18.5686 19.7148 19.5303 19.1248C20.4919 18.535 21.642 18.24 22.9804 18.24C24.8843 18.24 26.4403 18.8831 27.653 20.1692C28.866 21.4602 29.4701 23.167 29.4701 25.3042C29.4701 27.63 28.8273 29.3802 27.5371 30.56C26.2467 31.735 24.7198 32.32 22.9658 32.32C21.033 32.32 19.4672 31.6624 18.2689 30.3425C17.0659 29.0224 16.4668 27.3929 16.4668 25.4589ZM18.3221 25.488C18.3221 27.0399 18.7426 28.3117 19.5738 29.298C20.4096 30.2844 21.5404 30.7776 22.9611 30.7776C24.512 30.7776 25.6768 30.2457 26.4548 29.182C27.2279 28.1135 27.6196 26.8224 27.6196 25.2945C27.6196 23.4813 27.17 22.113 26.2808 21.1846C25.3868 20.2562 24.2901 19.792 22.9901 19.792C21.3615 19.792 20.1777 20.3335 19.4335 21.4167C18.6943 22.4997 18.3221 23.8584 18.3221 25.488Z" fill="white"/>
<path fill-rule="evenodd" clip-rule="evenodd" d="M31.7266 32.0879V18.4818H34.4421L37.6556 28.1135L38.3031 30.1346C38.4772 29.564 38.7187 28.8387 39.028 27.9539L42.285 18.4818H44.7056V32.0879H42.9709V20.7011L39.0181 32.0879H37.3994L33.4613 20.5076V32.0879H31.7266Z" fill="white"/>
</svg>
