<svg width="150" height="51" viewBox="0 0 150 51" fill="none" xmlns="http://www.w3.org/2000/svg">
<path fill-rule="evenodd" clip-rule="evenodd" d="M0 50.1593V12.7252H6.51108V44.3274H17.0302C21.0735 44.3274 24.2765 43.7668 26.6046 42.6113C28.9327 41.4729 30.7528 39.4058 32.0478 36.4462C33.3429 33.487 34.0077 29.7033 34.0077 25.1497C34.0077 20.6138 33.3253 16.9185 31.9775 14.0287C30.6298 11.1566 28.8092 9.2298 26.5171 8.21366C24.2237 7.19794 21.0036 6.70723 16.8725 6.70723H8.28321V6.70637H0V0.875427H16.9775C21.9835 0.875427 26.0615 1.50596 29.2298 2.74902C32.3976 3.9925 35.0935 6.54938 37.3509 10.4025C39.5916 14.2381 40.7121 19.1948 40.7121 25.2544C40.7121 32.7333 38.9439 38.7573 35.391 43.3289C31.8554 47.8825 25.974 50.1593 17.7658 50.1593H0Z" fill="white"/>
<path fill-rule="evenodd" clip-rule="evenodd" d="M47.7139 26.1479C47.7139 20.7536 48.6938 16.1301 50.6541 12.2418C52.614 8.35437 55.3271 5.34196 58.8104 3.20501C62.2934 1.06848 66.4592 0 71.307 0C78.2035 0 83.8396 2.32955 88.2322 6.98779C92.6257 11.664 94.814 17.8463 94.814 25.5877C94.814 34.012 92.4855 40.3517 87.8121 44.6252C83.1383 48.8811 77.6076 51 71.2543 51C64.2533 51 58.5819 48.6181 54.2412 43.8372C49.8838 39.0554 47.7139 33.1533 47.7139 26.1479ZM54.4341 26.2534C54.4341 31.8746 55.9572 36.4814 58.9678 40.054C61.9955 43.6266 66.0914 45.4131 71.2372 45.4131C76.8549 45.4131 81.0739 43.4868 83.8919 39.6336C86.6925 35.7634 88.1109 31.0867 88.1109 25.5525C88.1109 18.9847 86.4824 14.0288 83.2618 10.6659C80.0236 7.30305 76.0511 5.62163 71.3422 5.62163C65.4433 5.62163 61.1553 7.58315 58.4598 11.5066C55.7823 15.4292 54.4341 20.3508 54.4341 26.2534Z" fill="white"/>
<path fill-rule="evenodd" clip-rule="evenodd" d="M102.987 50.1593V0.875854H112.824L124.463 35.7633L126.809 43.084C127.439 41.0173 128.314 38.3901 129.434 35.1851L141.232 0.875854H150V50.1593H143.716V8.91453L129.399 50.1593H123.535L109.271 8.21365V50.1593H102.987Z" fill="white"/>
</svg>
