<svg width="34" height="26" viewBox="0 0 34 26" fill="none" xmlns="http://www.w3.org/2000/svg">
<path fill-rule="evenodd" clip-rule="evenodd" d="M17.0007 13.4216V16.4C16.099 16.4 15.2342 16.0418 14.5966 15.4042C13.9589 14.7665 13.6007 13.9017 13.6007 13C13.6007 12.0983 13.9589 11.2335 14.5966 10.5958C15.2342 9.9582 16.099 9.59999 17.0007 9.59999V13.4216ZM17.0007 7.33333C15.4978 7.33333 14.0565 7.93035 12.9938 8.99305C11.9311 10.0558 11.334 11.4971 11.334 13C11.334 14.5029 11.9311 15.9442 12.9938 17.0069C14.0565 18.0696 15.4978 18.6667 17.0007 18.6667V25.4667C10.9124 25.4667 6.66245 22.4112 3.97418 19.426C2.5085 17.787 1.28008 15.9505 0.324846 13.9701C0.246684 13.8039 0.171869 13.6361 0.100446 13.4669L0.0868461 13.4352L0.0845795 13.4261L0.0823128 13.4216C-0.0261355 13.151 -0.0261355 12.849 0.0823128 12.5784L0.231913 12.6396C0.181474 12.6198 0.131588 12.6009 0.0823128 12.5784V12.5739L0.0868461 12.5648L0.100446 12.5331C0.170338 12.3628 0.245936 12.195 0.327113 12.0299C1.2825 10.0503 2.51092 8.2145 3.97645 6.57626C6.66018 3.58879 10.9102 0.533325 17.0007 0.533325V7.33333ZM17.0007 9.59999V16.4C17.9025 16.4 18.7673 16.0418 19.4049 15.4042C20.0425 14.7665 20.4007 13.9017 20.4007 13C20.4007 12.0983 20.0425 11.2335 19.4049 10.5958C18.7673 9.9582 17.9025 9.59999 17.0007 9.59999ZM17.0007 18.6667C18.5036 18.6667 19.9449 18.0696 21.0077 17.0069C22.0704 15.9442 22.6674 14.5029 22.6674 13C22.6674 11.4971 22.0704 10.0558 21.0077 8.99305C19.9449 7.93035 18.5036 7.33333 17.0007 7.33333V0.533325C23.089 0.533325 27.339 3.58879 30.0272 6.57626C31.4928 8.21446 32.7212 10.0502 33.6766 12.0299C33.7547 12.1961 33.8295 12.3639 33.901 12.5331L33.9123 12.5648L33.9169 12.5739L33.9191 12.5784C34.0276 12.849 34.0276 13.151 33.9191 13.4216V13.4261L33.9123 13.4352L33.901 13.4669C33.8316 13.6374 33.756 13.8052 33.6743 13.9701C32.719 15.9497 31.4905 17.7855 30.025 19.4237C27.3412 22.4135 23.0912 25.4667 17.0007 25.4667V18.6667Z" fill="white"/>
</svg>
