<svg width="42" height="37" viewBox="0 0 42 37" fill="none" xmlns="http://www.w3.org/2000/svg">
<path d="M40.6482 0.796898C40.3258 0.518432 39.9336 0.333104 39.5138 0.260837C39.0939 0.18857 38.6623 0.232098 38.2654 0.386742L2.23024 14.5469C1.76193 14.7332 1.36617 15.0655 1.10165 15.4946C0.83714 15.9236 0.717969 16.4264 0.76182 16.9285C0.805671 17.4306 1.01021 17.9052 1.34509 18.2819C1.67997 18.6585 2.12735 18.9172 2.62086 19.0196L12.406 20.9922V33.0625C12.4001 33.5275 12.535 33.9834 12.7929 34.3704C13.0509 34.7573 13.4198 35.0571 13.8513 35.2305C14.1434 35.3467 14.4549 35.4064 14.7693 35.4063C15.0744 35.4066 15.3765 35.3463 15.6582 35.229C15.9398 35.1116 16.1953 34.9395 16.4099 34.7227L21.9959 29.1367L30.2381 36.3828C30.6604 36.7652 31.2113 36.9744 31.781 36.9688C32.0266 36.9681 32.2705 36.9286 32.5037 36.8516C32.8877 36.7256 33.233 36.5032 33.5065 36.2057C33.7801 35.9082 33.9728 35.5456 34.0662 35.1524L41.4099 3.08205C41.5061 2.66796 41.4858 2.23534 41.3514 1.83204C41.2169 1.42875 40.9736 1.07049 40.6482 0.796898ZM2.30836 16.793C2.28513 16.6237 2.32102 16.4516 2.40998 16.3057C2.49894 16.1598 2.63551 16.0491 2.79664 15.9922L35.8435 3.02346L13.0115 19.5078L2.93336 17.4961C2.7655 17.4658 2.61267 17.3801 2.49935 17.2526C2.38602 17.1251 2.31877 16.9632 2.30836 16.793ZM15.2966 33.6094C15.1905 33.7197 15.0536 33.7954 14.9038 33.8268C14.754 33.8581 14.5982 33.8436 14.4568 33.7852C14.3128 33.7269 14.1894 33.6271 14.1024 33.4983C14.0155 33.3696 13.9688 33.2179 13.9685 33.0625V22.0664L20.824 28.1016L15.2966 33.6094ZM39.8865 2.75002L32.5427 34.8008C32.5135 34.9337 32.4491 35.0564 32.3564 35.156C32.2636 35.2556 32.1459 35.3285 32.0154 35.3672C31.8894 35.4125 31.7532 35.4219 31.6222 35.3943C31.4911 35.3667 31.3703 35.3032 31.2732 35.211L14.4373 20.4063L39.7693 2.10549C39.8332 2.19859 39.8766 2.30415 39.8968 2.41523C39.917 2.52631 39.9135 2.6404 39.8865 2.75002Z" fill="white"/>
</svg>
