<svg width="20" height="20" viewBox="0 0 20 20" fill="none" xmlns="http://www.w3.org/2000/svg">
<path d="M11.8872 1.35585C11.8872 4.31002 13.4447 5.79502 14.7863 7.20669C16.0697 8.55669 17.2913 9.84252 17.2913 12.2917C17.2913 16.3017 14.1638 19.1667 10.1538 19.1667C6.14301 19.1667 2.70801 16.3159 2.70801 12.2917C2.70801 10.5925 3.50967 8.94919 4.79884 8.20919C5.05301 8.06335 5.35884 8.21502 5.46801 8.48752C6.30217 10.57 7.33051 10.5334 7.86384 10C8.18717 9.67752 8.25551 9.07002 7.86051 8.28169C5.85634 4.27169 9.41301 1.38252 11.3605 0.903354C11.6405 0.83502 11.873 1.06835 11.8872 1.35585ZM10.1538 17.9167C13.5363 17.9167 16.0413 15.55 16.0413 12.2917C16.0413 10.3442 15.1305 9.38419 13.8097 7.99335L13.7922 7.97419C12.5922 6.71002 11.1763 5.18169 10.7513 2.51002C10.1221 2.87989 9.57914 3.37994 9.15884 3.97669C8.50301 4.93002 8.20301 6.17085 8.97884 7.72252C9.48134 8.72669 9.62634 10.0059 8.74801 10.8842C8.20051 11.4317 7.27967 11.8009 6.28467 11.3725C5.65801 11.1025 5.15717 10.5767 4.75301 9.88085C4.28051 10.4692 3.95801 11.3309 3.95801 12.2917C3.95801 15.4975 6.69801 17.9167 10.1538 17.9167Z" fill="white"/>
</svg>
