<svg width="38" height="38" viewBox="0 0 38 38" fill="none" xmlns="http://www.w3.org/2000/svg">
<path d="M19 10.4062C17.3003 10.4062 15.6388 10.9103 14.2256 11.8546C12.8123 12.7989 11.7109 14.141 11.0604 15.7113C10.41 17.2816 10.2398 19.0095 10.5714 20.6766C10.903 22.3436 11.7214 23.8748 12.9233 25.0767C14.1252 26.2786 15.6564 27.097 17.3234 27.4286C18.9905 27.7602 20.7184 27.59 22.2887 26.9396C23.859 26.2891 25.2011 25.1877 26.1454 23.7744C27.0897 22.3612 27.5938 20.6997 27.5938 19C27.5938 16.7208 26.6883 14.5349 25.0767 12.9233C23.4651 11.3117 21.2792 10.4062 19 10.4062ZM19 26.0312C17.6094 26.0312 16.2499 25.6189 15.0936 24.8463C13.9374 24.0737 13.0361 22.9755 12.504 21.6907C11.9718 20.4059 11.8326 18.9922 12.1039 17.6283C12.3752 16.2643 13.0448 15.0115 14.0282 14.0282C15.0115 13.0448 16.2643 12.3752 17.6283 12.1039C18.9922 11.8326 20.4059 11.9718 21.6907 12.504C22.9755 13.0361 24.0737 13.9374 24.8463 15.0936C25.6189 16.2499 26.0312 17.6094 26.0312 19C26.0312 20.8648 25.2905 22.6532 23.9718 23.9718C22.6532 25.2905 20.8648 26.0312 19 26.0312ZM27.5938 0.25H10.4062C7.71265 0.25 5.12936 1.32003 3.2247 3.2247C1.32003 5.12936 0.25 7.71265 0.25 10.4062V27.5938C0.25 28.9275 0.512699 30.2482 1.0231 31.4804C1.5335 32.7126 2.2816 33.8322 3.2247 34.7753C5.12936 36.68 7.71265 37.75 10.4062 37.75H27.5938C28.9275 37.75 30.2482 37.4873 31.4804 36.9769C32.7126 36.4665 33.8322 35.7184 34.7753 34.7753C35.7184 33.8322 36.4665 32.7126 36.9769 31.4804C37.4873 30.2482 37.75 28.9275 37.75 27.5938V10.4062C37.75 9.07251 37.4873 7.75183 36.9769 6.51962C36.4665 5.28741 35.7184 4.16779 34.7753 3.2247C33.8322 2.2816 32.7126 1.5335 31.4804 1.0231C30.2482 0.512699 28.9275 0.25 27.5938 0.25ZM36.1875 27.5938C36.1875 29.873 35.2821 32.0588 33.6704 33.6704C32.0588 35.2821 29.873 36.1875 27.5938 36.1875H10.4062C8.12705 36.1875 5.94119 35.2821 4.32955 33.6704C2.71791 32.0588 1.8125 29.873 1.8125 27.5938V10.4062C1.8125 8.12705 2.71791 5.94119 4.32955 4.32955C5.94119 2.71791 8.12705 1.8125 10.4062 1.8125H27.5938C29.873 1.8125 32.0588 2.71791 33.6704 4.32955C35.2821 5.94119 36.1875 8.12705 36.1875 10.4062V27.5938ZM30.7188 8.84375C30.7188 9.15278 30.6271 9.45488 30.4554 9.71183C30.2837 9.96878 30.0397 10.1691 29.7542 10.2873C29.4687 10.4056 29.1545 10.4365 28.8514 10.3762C28.5483 10.3159 28.2699 10.1671 28.0514 9.9486C27.8329 9.73008 27.6841 9.45167 27.6238 9.14858C27.5635 8.84548 27.5944 8.53132 27.7127 8.24581C27.8309 7.9603 28.0312 7.71627 28.2882 7.54458C28.5451 7.37289 28.8472 7.28125 29.1562 7.28125C29.5707 7.28125 29.9681 7.44587 30.2611 7.7389C30.5541 8.03192 30.7188 8.42935 30.7188 8.84375Z" fill="white"/>
</svg>
