<svg width="25" height="33" viewBox="0 0 25 33" fill="none" xmlns="http://www.w3.org/2000/svg">
<path d="M12.5 24.375C11.6201 24.3752 10.7724 24.0439 10.1257 23.4472C9.47907 22.8505 9.08089 22.0321 9.0105 21.155C6.67633 20.3288 4.70909 18.7045 3.45604 16.5689C2.20299 14.4333 1.74471 11.9236 2.16209 9.48297C2.57948 7.04231 3.84568 4.82758 5.7372 3.22972C7.62871 1.63186 10.0239 0.753606 12.5 0.75C15.1336 0.749618 17.6711 1.7389 19.6095 3.52169C21.5479 5.30449 22.7455 7.7506 22.965 10.375C22.9723 10.4888 22.9559 10.6029 22.9167 10.7101C22.8775 10.8172 22.8165 10.915 22.7375 10.9973C22.6585 11.0796 22.5633 11.1446 22.4578 11.1881C22.3524 11.2316 22.239 11.2527 22.125 11.25C21.8907 11.2437 21.6671 11.1508 21.4974 10.9892C21.3277 10.8275 21.2239 10.6087 21.2063 10.375C21.0504 8.82771 20.485 7.34992 19.5682 6.09375C18.6515 4.83759 17.4165 3.84844 15.9904 3.22815C14.5644 2.60786 12.9988 2.37884 11.4548 2.56465C9.91081 2.75047 8.44425 3.34442 7.20609 4.28535C5.96793 5.22628 5.0029 6.48019 4.41036 7.918C3.81783 9.35581 3.61918 10.9256 3.83489 12.4656C4.05059 14.0057 4.67285 15.4605 5.6376 16.6802C6.60235 17.8999 7.87473 18.8404 9.32375 19.405C9.58741 18.8353 9.99944 18.347 10.5167 17.9912C11.0339 17.6355 11.6373 17.4254 12.2636 17.383C12.89 17.3406 13.5162 17.4674 14.0766 17.7502C14.6371 18.033 15.1112 18.4613 15.4493 18.9902C15.7873 19.5192 15.9769 20.1293 15.9981 20.7568C16.0193 21.3842 15.8714 22.0057 15.5698 22.5563C15.2683 23.1069 14.8242 23.5662 14.2841 23.8862C13.744 24.2062 13.1278 24.375 12.5 24.375ZM3.76575 20H3.925C4.6075 20.6667 5.36525 21.2547 6.186 21.75H3.76575C2.784 21.75 2 22.5322 2 23.5C2 25.7908 3.0885 27.497 4.92775 28.6677C6.80025 29.863 9.46375 30.5 12.5 30.5C15.5363 30.5 18.1997 29.863 20.0723 28.6677C21.9097 27.4952 23 25.7925 23 23.5C23 23.0359 22.8156 22.5908 22.4874 22.2626C22.1592 21.9344 21.7141 21.75 21.25 21.75H17.6782C17.7756 21.1707 17.7756 20.5793 17.6782 20H21.25C22.1783 20 23.0685 20.3687 23.7249 21.0251C24.3813 21.6815 24.75 22.5717 24.75 23.5C24.75 26.4592 23.2922 28.6905 21.0138 30.1448C18.7703 31.5745 15.7463 32.25 12.5 32.25C9.25375 32.25 6.22975 31.5745 3.98625 30.1448C1.70775 28.6923 0.25 26.4575 0.25 23.5C0.25 21.5522 1.83025 20 3.76575 20ZM19.5 11.25C19.5009 12.4342 19.2011 13.5993 18.6287 14.636C18.0563 15.6727 17.2301 16.5471 16.2275 17.1772C15.7601 16.7064 15.2079 16.3282 14.6 16.0625C15.7054 15.58 16.6111 14.7317 17.1646 13.66C17.7181 12.5884 17.8857 11.3589 17.6393 10.1782C17.3928 8.99748 16.7474 7.93764 15.8114 7.17687C14.8755 6.4161 13.7061 6.0008 12.5 6.0008C11.2939 6.0008 10.1245 6.4161 9.18856 7.17687C8.25262 7.93764 7.60717 8.99748 7.36074 10.1782C7.11432 11.3589 7.28195 12.5884 7.83545 13.66C8.38895 14.7317 9.29456 15.58 10.4 16.0625C9.7875 16.3302 9.23625 16.71 8.7725 17.1772C7.44433 16.3401 6.43508 15.0819 5.906 13.6038C5.63625 12.8484 5.4989 12.0521 5.5 11.25C5.5 9.39348 6.2375 7.61301 7.55025 6.30025C8.86301 4.9875 10.6435 4.25 12.5 4.25C14.3565 4.25 16.137 4.9875 17.4497 6.30025C18.7625 7.61301 19.5 9.39348 19.5 11.25Z" fill="white"/>
</svg>
