<svg width="40" height="40" viewBox="0 0 40 40" fill="none" xmlns="http://www.w3.org/2000/svg">
<path d="M20.0001 0.46875C16.5811 0.468384 13.2218 1.36557 10.2582 3.0706C7.29455 4.77564 4.83045 7.22878 3.11223 10.1848C1.394 13.1407 0.481854 16.496 0.466982 19.915C0.45211 23.3341 1.33503 26.6972 3.02748 29.668L1.26967 35.8398C1.15699 36.2406 1.1531 36.6641 1.25837 37.0669C1.36364 37.4697 1.57429 37.8371 1.86866 38.1315C2.16302 38.4258 2.53048 38.6365 2.93324 38.7418C3.336 38.847 3.75954 38.8431 4.16029 38.7305L10.3322 36.9727C12.9311 38.4525 15.8353 39.3158 18.8206 39.4958C21.8059 39.6759 24.7928 39.1679 27.5508 38.0112C30.3088 36.8544 32.7643 35.0797 34.728 32.8239C36.6917 30.5681 38.1111 27.8915 38.8768 25.0004C39.6425 22.1093 39.734 19.081 39.1443 16.1489C38.5546 13.2169 37.2994 10.4594 35.4755 8.08916C33.6517 5.71889 31.3078 3.79914 28.6247 2.47792C25.9416 1.1567 22.9909 0.469312 20.0001 0.46875ZM20.0001 37.9688C16.7685 37.9762 13.5955 37.1054 10.8204 35.4492C10.6993 35.3875 10.5657 35.3541 10.4298 35.3516H10.215L3.73061 37.207C3.59811 37.2426 3.45858 37.2426 3.32606 37.2071C3.19355 37.1717 3.07271 37.1019 2.9757 37.0049C2.8787 36.9079 2.80895 36.7871 2.77346 36.6545C2.73798 36.522 2.73802 36.3825 2.77357 36.25L4.62904 29.7656C4.68397 29.5614 4.65589 29.3437 4.55092 29.1602C2.52981 25.7493 1.69349 21.7659 2.17223 17.8302C2.65097 13.8946 4.4179 10.2278 7.19777 7.40096C9.97764 4.57417 13.6144 2.74611 17.5414 2.20155C21.4685 1.657 25.4655 2.42653 28.9096 4.39026C32.3538 6.354 35.0518 9.40168 36.5833 13.0586C38.1149 16.7154 38.3941 20.7762 37.3773 24.6082C36.3605 28.4403 34.1049 31.8285 30.9619 34.2451C27.8188 36.6616 23.9648 37.9708 20.0001 37.9688ZM29.8634 23.6133L25.879 21.3477C25.5157 21.1395 25.1037 21.0317 24.685 21.0351C24.2663 21.0386 23.8561 21.1532 23.4962 21.3672L20.8009 22.9883C19.1774 22.1462 17.8539 20.8228 17.0119 19.1992L18.6329 16.5039C18.847 16.1441 18.9616 15.7338 18.965 15.3151C18.9684 14.8965 18.8606 14.4844 18.6525 14.1211L16.3869 10.1367C16.1987 9.81087 15.9283 9.54014 15.6027 9.35162C15.2771 9.1631 14.9076 9.0634 14.5314 9.0625C12.8772 9.06249 11.2904 9.71829 10.1189 10.8862C8.94732 12.0541 8.28656 13.6388 8.28139 15.293C8.27882 17.4491 8.70129 19.5846 9.52463 21.5774C10.348 23.5701 11.556 25.381 13.0798 26.9066C14.6035 28.4321 16.413 29.6423 18.4047 30.468C20.3965 31.2937 22.5315 31.7188 24.6876 31.7188H24.7072C26.3614 31.7136 27.9461 31.0528 29.114 29.8813C30.2818 28.7097 30.9376 27.123 30.9376 25.4688C30.9367 25.0925 30.837 24.7231 30.6485 24.3974C30.46 24.0718 30.1893 23.8014 29.8634 23.6133ZM24.7072 30.1562H24.6876C20.749 30.1511 16.9735 28.5828 14.1903 25.796C11.4072 23.0092 9.84388 19.2316 9.84389 15.293C9.84905 14.0532 10.3452 12.8659 11.2237 11.991C12.1022 11.1162 13.2916 10.625 14.5314 10.625C14.6314 10.6264 14.7293 10.6542 14.815 10.7057C14.9008 10.7571 14.9714 10.8304 15.0197 10.918L17.3048 14.9023C17.3715 15.0253 17.4064 15.1629 17.4064 15.3027C17.4064 15.4426 17.3715 15.5802 17.3048 15.7031L15.4689 18.75C15.4012 18.8571 15.3621 18.9797 15.3553 19.1062C15.3485 19.2327 15.3741 19.3589 15.4298 19.4727C16.447 21.7391 18.261 23.5532 20.5275 24.5703C20.6413 24.626 20.7674 24.6517 20.8939 24.6448C21.0204 24.638 21.143 24.5989 21.2501 24.5312L24.297 22.6953C24.4199 22.6286 24.5576 22.5937 24.6974 22.5937C24.8372 22.5937 24.9749 22.6286 25.0978 22.6953L29.0822 24.9805C29.1698 25.0287 29.243 25.0994 29.2945 25.1851C29.3459 25.2709 29.3738 25.3687 29.3751 25.4688C29.3751 26.7086 28.884 27.8979 28.0091 28.7764C27.1343 29.6549 25.947 30.1511 24.7072 30.1562Z" fill="white"/>
</svg>
